<svg width="316" height="188" viewBox="0 0 316 188" fill="none" xmlns="http://www.w3.org/2000/svg">
<path d="M221.837 158.886C220.01 173.638 174.718 173.96 163.482 173.96C152.247 173.96 99.0121 175.274 101.369 162.797C103.726 150.32 144.874 142.088 163.482 149.815C182.091 157.542 223.663 144.134 221.837 158.886Z" fill="#ECEDEF"/>
<path d="M147.662 128.686C148.958 141.98 148.937 148.77 147.662 159.703" stroke="#2C4163" stroke-width="2" stroke-linecap="round"/>
<path d="M169.575 128.686C168.279 141.98 168.3 148.77 169.575 159.703" stroke="#2C4163" stroke-width="2" stroke-linecap="round"/>
<path d="M123.227 108.965L123.726 108.99L123.777 107.991L123.278 107.966L123.227 108.965ZM88.8871 95.3375C88.6115 95.3208 88.3745 95.5307 88.3579 95.8064C88.3412 96.082 88.5511 96.319 88.8268 96.3356L88.8871 95.3375ZM91.1396 91.4241C90.9118 91.268 90.6006 91.3261 90.4445 91.5539C90.2884 91.7817 90.3465 92.0929 90.5743 92.249L91.1396 91.4241ZM89.7611 93.4157C89.4999 93.3263 89.2156 93.4656 89.1261 93.7268C89.0367 93.9881 89.176 94.2724 89.4373 94.3618L89.7611 93.4157ZM123.252 108.465L123.278 107.966C114.273 107.507 109.68 105.527 106.406 103.209C104.751 102.038 103.428 100.779 102.005 99.5255C100.59 98.2791 99.0964 97.0591 97.149 96.0361L96.9165 96.4788L96.684 96.9214C98.5251 97.8886 99.9481 99.0463 101.344 100.276C102.733 101.499 104.116 102.814 105.828 104.026C109.289 106.475 114.075 108.498 123.227 108.965L123.252 108.465ZM96.9165 96.4788L96.6322 96.8901C96.708 96.9425 96.6959 96.9478 96.6679 96.905C96.6512 96.8794 96.6074 96.8039 96.607 96.6904C96.6064 96.5594 96.6634 96.4512 96.7318 96.382C96.828 96.2846 96.9223 96.286 96.8563 96.2968C96.8217 96.3024 96.7567 96.3076 96.6528 96.3073C96.2302 96.3058 95.4875 96.218 94.5679 96.0878C92.7722 95.8335 90.3689 95.427 88.8871 95.3375L88.857 95.8365L88.8268 96.3356C90.2552 96.422 92.5746 96.8155 94.4277 97.0779C95.3324 97.206 96.1455 97.3055 96.6494 97.3072C96.7772 97.3077 96.9045 97.3021 97.0172 97.2837C97.0985 97.2705 97.2952 97.2345 97.4432 97.0848C97.5374 96.9894 97.6076 96.8513 97.6069 96.6863C97.6064 96.5388 97.5491 96.4254 97.5048 96.3577C97.4217 96.2306 97.2983 96.1348 97.2008 96.0675L96.9165 96.4788ZM96.9165 96.4788L97.2008 96.0675C96.4734 95.5647 95.6462 94.8786 94.6408 94.0669C93.6434 93.2617 92.49 92.3495 91.1396 91.4241L90.8569 91.8365L90.5743 92.249C91.8918 93.1519 93.0209 94.0443 94.0127 94.845C94.9964 95.6392 95.8651 96.3599 96.6322 96.8901L96.9165 96.4788ZM96.9165 96.4788C97.0866 96.0086 97.0866 96.0086 97.0866 96.0086C97.0865 96.0086 97.0865 96.0086 97.0864 96.0085C97.0863 96.0085 97.0861 96.0084 97.0858 96.0083C97.0853 96.0081 97.0845 96.0078 97.0834 96.0074C97.0813 96.0067 97.0781 96.0055 97.0739 96.004C97.0655 96.001 97.053 95.9965 97.0366 95.9905C97.0038 95.9787 96.9554 95.9612 96.8926 95.9385C96.7672 95.8933 96.5848 95.8275 96.3567 95.7454C95.9005 95.5813 95.2615 95.3519 94.5304 95.091C93.0688 94.5693 91.237 93.921 89.7611 93.4157L89.5992 93.8888L89.4373 94.3618C90.9068 94.8649 92.7336 95.5115 94.1943 96.0328C94.9244 96.2933 95.5625 96.5224 96.0181 96.6863C96.2459 96.7683 96.428 96.834 96.5532 96.8792C96.6157 96.9017 96.6641 96.9192 96.6968 96.931C96.7131 96.9369 96.7255 96.9414 96.7339 96.9444C96.738 96.9459 96.7412 96.9471 96.7433 96.9478C96.7443 96.9482 96.7451 96.9485 96.7456 96.9487C96.7459 96.9488 96.7461 96.9488 96.7462 96.9489C96.7463 96.9489 96.7463 96.9489 96.7464 96.9489C96.7464 96.9489 96.7464 96.949 96.9165 96.4788Z" fill="#2C4163"/>
<path d="M106.455 51.3183C106.166 52.3334 106.768 53.3876 107.773 53.7078C116.708 56.552 120.113 60.5672 122.257 64.2738C122.795 65.2047 121.618 66.187 120.779 65.5141C120.686 65.4394 120.593 65.365 120.501 65.291C117.651 63.0037 115.146 60.9932 111.445 59.2422C111.428 59.3268 111.401 59.411 111.365 59.4934L104.304 75.8521C105.4 76.6624 105.835 78.147 105.272 79.4518L97.7232 96.9408C97.0666 98.462 95.3011 99.1629 93.78 98.5063L92.0262 97.7493C90.505 97.0927 89.8041 95.3272 90.4608 93.806L98.0096 76.317C98.6607 74.8086 100.402 74.1067 101.915 74.7353L108.945 58.4485C108.979 58.3679 109.021 58.2924 109.069 58.2227C108.332 57.936 107.548 57.6571 106.711 57.3858C105.709 57.0609 104.651 57.6528 104.363 58.6665C104.074 59.6802 103.018 60.2679 102.005 59.9793L99.3395 59.2204C98.2771 58.9179 97.6612 57.8115 97.9637 56.7492L100.004 49.5836C100.307 48.5213 101.413 47.9053 102.475 48.2078L105.147 48.9686C106.157 49.2562 106.743 50.3082 106.455 51.3183Z" fill="#2C4163"/>
<path d="M185.424 106.425L185.251 105.956L184.313 106.302L184.486 106.771L185.424 106.425ZM221.432 79.6566C221.666 79.5103 221.737 79.2018 221.591 78.9676C221.444 78.7334 221.136 78.6623 220.902 78.8086L221.432 79.6566ZM215.667 85.7326L215.198 85.5571L215.191 85.5759L215.186 85.5953L215.667 85.7326ZM220.138 77.0649C220.045 76.8048 219.759 76.669 219.499 76.7617C219.239 76.8543 219.103 77.1403 219.196 77.4004L220.138 77.0649ZM222.464 81.1345C222.686 80.9703 222.733 80.6571 222.568 80.4352C222.404 80.2132 222.091 80.1664 221.869 80.3307L222.464 81.1345ZM184.955 106.598L184.486 106.771C185.29 108.951 186.359 110.476 187.656 111.408C188.963 112.347 190.455 112.649 192.029 112.467C195.133 112.107 198.595 109.857 201.871 106.831C205.166 103.787 208.35 99.8846 210.897 96.0863C213.44 92.2957 215.376 88.5685 216.147 85.87L215.667 85.7326L215.186 85.5953C214.457 88.1468 212.586 91.773 210.067 95.5293C207.552 99.278 204.418 103.116 201.193 106.096C197.948 109.094 194.686 111.152 191.914 111.474C190.55 111.632 189.316 111.369 188.24 110.596C187.155 109.817 186.184 108.486 185.424 106.425L184.955 106.598ZM215.667 85.7326C216.135 85.9082 216.135 85.9083 216.135 85.9085C216.135 85.9085 216.135 85.9086 216.135 85.9086C216.134 85.9087 216.134 85.9087 216.134 85.9087C216.135 85.9086 216.135 85.9083 216.135 85.9078C216.135 85.9067 216.136 85.9046 216.137 85.9016C216.14 85.8957 216.143 85.886 216.149 85.8728C216.159 85.8464 216.176 85.8058 216.199 85.7524C216.244 85.6455 216.315 85.4874 216.412 85.2888C216.607 84.8912 216.909 84.3327 217.333 83.6975C218.181 82.4251 219.508 80.8586 221.432 79.6566L221.167 79.2326L220.902 78.8086C218.825 80.1067 217.402 81.7901 216.5 83.1428C216.049 83.8201 215.726 84.4178 215.514 84.8484C215.409 85.0638 215.331 85.2377 215.279 85.3594C215.253 85.4202 215.233 85.468 215.22 85.5014C215.213 85.5181 215.208 85.5312 215.205 85.5405C215.203 85.5452 215.201 85.5489 215.2 85.5517C215.2 85.5531 215.199 85.5542 215.199 85.5551C215.199 85.5556 215.199 85.5559 215.199 85.5563C215.199 85.5564 215.199 85.5566 215.198 85.5567C215.198 85.5569 215.198 85.5571 215.667 85.7326ZM215.667 85.7326L216.081 86.0118C216.776 84.98 217.914 83.1959 218.817 81.4837C219.267 80.6291 219.667 79.7777 219.923 79.0391C220.051 78.67 220.147 78.3157 220.193 77.9947C220.237 77.682 220.241 77.3538 220.138 77.0649L219.667 77.2327L219.196 77.4004C219.22 77.4688 219.237 77.6102 219.203 77.8537C219.169 78.0889 219.094 78.3774 218.978 78.7121C218.746 79.3813 218.373 80.1815 217.932 81.0172C217.052 82.6857 215.936 84.4371 215.252 85.4535L215.667 85.7326ZM215.667 85.7326L215.903 86.1732C217.171 85.4929 217.983 84.8413 218.893 84.0572C219.796 83.2783 220.793 82.3708 222.464 81.1345L222.167 80.7326L221.869 80.3307C220.161 81.5944 219.131 82.5315 218.24 83.2999C217.355 84.0631 216.606 84.6614 215.43 85.292L215.667 85.7326Z" fill="#2C4163"/>
<path d="M197.818 48.1309L197.336 49.9318L209.86 71.6244L209.871 71.6432C208.674 72.5412 208.31 74.2124 209.077 75.5409L218.601 92.0375C219.43 93.4724 221.264 93.964 222.699 93.1356L224.353 92.1805C225.788 91.3521 226.28 89.5173 225.451 88.0824L215.927 71.5858C215.16 70.2574 213.531 69.7374 212.154 70.325L212.144 70.306L200.279 49.755C200.277 49.7529 200.276 49.7507 200.275 49.7486L199.619 48.6134L197.818 48.1309Z" fill="#2C4163"/>
<path d="M199.36 84.9282C197.622 118.042 179.809 136.439 157.651 136.439C135.493 136.439 118.549 108.844 115.942 84.9282C113.335 61.0123 130.777 33.417 157.651 33.417C184.525 33.417 201.097 51.8138 199.36 84.9282Z" fill="#846CA4"/>
<g clip-path="url(#clip0_7511_155849)">
<ellipse cx="146.666" cy="68.1457" rx="6.72358" ry="10.3576" fill="white"/>
<ellipse cx="143.502" cy="68.1459" rx="3.55954" ry="6.37392" fill="#2C4163"/>
<ellipse cx="169.606" cy="68.1457" rx="6.72358" ry="10.3576" fill="white"/>
<ellipse cx="166.442" cy="68.1459" rx="3.55954" ry="6.37392" fill="#2C4163"/>
</g>
<path d="M173.863 160.074C172.325 159.824 170.461 159.192 168.918 159.407C167.865 159.553 166.78 159.627 165.712 159.453" stroke="#2C4163" stroke-width="3" stroke-linecap="round"/>
<path d="M142.847 158.957C145.53 158.957 148.132 159.305 150.819 159.305" stroke="#2C4163" stroke-width="3" stroke-linecap="round"/>
<path d="M164.275 85.3271C162.026 93.3172 150.662 93.4104 151.975 86.9199" stroke="#2C4163" stroke-width="2" stroke-linecap="round"/>
<path fill-rule="evenodd" clip-rule="evenodd" d="M198.676 15.4002C198.884 15.3115 199.126 15.352 199.299 15.5047L201.989 18.2002L205.645 17.4627C205.865 17.4059 206.098 17.4815 206.249 17.6578C206.399 17.834 206.439 18.0804 206.353 18.2933C205.922 19.821 205.681 20.397 204.954 21.6772C205.538 22.9213 205.963 23.64 207.06 25.0011C207.184 25.1972 207.19 25.4464 207.074 25.644C206.959 25.8416 206.742 25.9533 206.516 25.9322C205.001 25.6082 204.159 25.4954 202.674 25.5734C201.903 26.9706 201.274 27.9946 200.203 29.0139C200.06 29.1921 199.83 29.2707 199.608 29.2166C199.386 29.1625 199.212 28.9852 199.158 28.7592C198.94 27.215 198.842 25.9408 198.303 24.5082C196.926 24.136 195.952 23.8992 194.515 23.1422C194.302 23.0564 194.154 22.8558 194.133 22.6248C194.111 22.3939 194.22 22.1725 194.413 22.0538C195.639 21.1502 196.527 20.5767 197.879 19.9498C198.075 18.4173 198.343 17.4537 198.317 15.9226C198.328 15.6914 198.467 15.4889 198.676 15.4002Z" fill="#2C4163"/>
<path fill-rule="evenodd" clip-rule="evenodd" d="M181.254 15.0155C181.403 15.0483 181.52 15.1652 181.556 15.317L181.992 17.8542L184.291 18.8796C184.434 18.9341 184.533 19.0673 184.547 19.2231C184.561 19.3789 184.488 19.5303 184.358 19.6137C183.528 20.2861 183.172 20.5088 182.275 20.9288C182.115 21.8426 182.07 22.4047 182.146 23.5833C182.138 23.7398 182.044 23.8791 181.904 23.9427C181.764 24.0062 181.601 23.983 181.485 23.8827C180.777 23.1113 180.357 22.7194 179.509 22.1814C178.543 22.6486 177.8 22.9661 176.814 23.1077C176.667 23.15 176.509 23.103 176.408 22.9865C176.307 22.8699 176.28 22.7041 176.338 22.5586C176.817 21.6229 177.257 20.8833 177.516 19.8835C176.902 19.1395 176.458 18.6278 175.961 17.6485C175.877 17.5182 175.873 17.3498 175.951 17.2142C176.029 17.0786 176.174 16.9992 176.327 17.0095C177.352 16.9922 178.063 17.024 179.051 17.2081C179.753 16.4412 180.274 16.0158 180.854 15.1627C180.95 15.0399 181.105 14.9828 181.254 15.0155Z" fill="#2C4163"/>
<path fill-rule="evenodd" clip-rule="evenodd" d="M130.382 23.0417C130.514 23.0431 130.634 23.1212 130.691 23.2433L131.504 25.3132L133.629 25.7743C133.759 25.7953 133.867 25.8904 133.906 26.0197C133.946 26.149 133.91 26.2901 133.815 26.3837C133.23 27.0994 132.968 27.3508 132.283 27.8648C132.307 28.6665 132.367 29.15 132.638 30.1339C132.659 30.2677 132.604 30.4022 132.497 30.4808C132.389 30.5593 132.247 30.5684 132.131 30.5041C131.397 29.9766 130.973 29.7193 130.162 29.4138C129.426 29.9801 128.852 30.3802 128.043 30.6743C127.926 30.7362 127.785 30.7243 127.679 30.6435C127.573 30.5628 127.521 30.4272 127.544 30.2938C127.785 29.4175 128.028 28.7137 128.072 27.8219C127.423 27.3009 126.957 26.9465 126.364 26.2058C126.271 26.1102 126.238 25.9684 126.28 25.84C126.322 25.7115 126.432 25.6186 126.562 25.6003C127.427 25.4043 128.034 25.3055 128.902 25.2867C129.362 24.5135 129.729 24.0613 130.07 23.237C130.129 23.1161 130.25 23.0404 130.382 23.0417Z" fill="#2C4163"/>
<path fill-rule="evenodd" clip-rule="evenodd" d="M118.858 16.3169C118.951 16.2887 119.052 16.3171 119.119 16.39L120.142 17.6614L121.733 17.5152C121.829 17.5011 121.925 17.544 121.981 17.626C122.037 17.7079 122.043 17.8147 121.996 17.9014C121.743 18.5322 121.614 18.7664 121.246 19.2782C121.439 19.8348 121.587 20.1604 121.992 20.7903C122.036 20.8795 122.027 20.9859 121.969 21.0648C121.911 21.1436 121.814 21.1812 121.718 21.1618C121.088 20.9543 120.734 20.8676 120.099 20.8327C119.707 21.3923 119.392 21.7995 118.89 22.1843C118.821 22.2537 118.719 22.2765 118.627 22.2433C118.535 22.2101 118.469 22.1266 118.456 22.0279C118.434 21.3603 118.45 20.8132 118.285 20.1784C117.716 19.9566 117.312 19.8111 116.734 19.4227C116.648 19.3764 116.594 19.2842 116.595 19.1849C116.597 19.0855 116.653 18.9963 116.741 18.9546C117.304 18.6261 117.708 18.4226 118.312 18.2178C118.465 17.5741 118.623 17.1761 118.682 16.5229C118.697 16.425 118.766 16.3451 118.858 16.3169Z" fill="#2C4163"/>
<path fill-rule="evenodd" clip-rule="evenodd" d="M186.97 24.5029C187.059 24.4844 187.151 24.5192 187.208 24.5929L188.057 25.8644L189.553 25.8605C189.644 25.8553 189.73 25.9034 189.775 25.9845C189.821 26.0657 189.818 26.1658 189.767 26.2428C189.479 26.8103 189.339 27.018 188.954 27.4649C189.087 28.0002 189.199 28.3164 189.525 28.9379C189.558 29.0248 189.541 29.1233 189.48 29.192C189.42 29.2607 189.326 29.2877 189.238 29.2616C188.667 29.0155 188.345 28.9051 187.755 28.8196C187.343 29.309 187.016 29.6627 186.515 29.9799C186.445 30.0388 186.348 30.0517 186.265 30.0131C186.182 29.9744 186.127 29.891 186.124 29.7978C186.157 29.173 186.218 28.6639 186.117 28.0579C185.604 27.8036 185.239 27.6341 184.732 27.2237C184.655 27.1733 184.613 27.0827 184.622 26.9902C184.631 26.8976 184.691 26.819 184.777 26.7874C185.329 26.5279 185.723 26.3717 186.304 26.2309C186.5 25.6432 186.68 25.285 186.789 24.6804C186.811 24.5903 186.882 24.5215 186.97 24.5029Z" fill="#2C4163"/>
<path fill-rule="evenodd" clip-rule="evenodd" d="M104.58 29.1964C104.686 29.0367 104.875 28.9527 105.067 28.9796L108.209 29.6262L110.447 27.4019C110.575 27.2597 110.775 27.204 110.962 27.2583C111.149 27.3127 111.292 27.4675 111.329 27.6578C111.731 28.936 111.827 29.4546 111.905 30.6962C112.892 31.301 113.524 31.6097 114.926 32.0583C115.104 32.1386 115.223 32.3118 115.233 32.505C115.242 32.6982 115.141 32.8779 114.972 32.9686C113.754 33.4462 113.108 33.7593 112.097 34.5062C112.199 35.8509 112.228 36.8661 111.943 38.0843C111.925 38.2764 111.799 38.4392 111.618 38.5044C111.436 38.5696 111.232 38.5258 111.089 38.3915C110.222 37.4045 109.565 36.5515 108.523 35.7927C107.38 36.1722 106.584 36.4592 105.221 36.5952C105.031 36.6336 104.834 36.5612 104.713 36.4084C104.591 36.2556 104.565 36.0489 104.646 35.8752C105.094 34.6663 105.455 33.8482 106.119 32.776C105.549 31.6041 105.293 30.7994 104.568 29.732C104.469 29.5637 104.474 29.356 104.58 29.1964Z" fill="#2C4163"/>
<defs>
<clipPath id="clip0_7511_155849">
<rect width="36.3864" height="20.7152" fill="white" transform="translate(139.943 57.7881)"/>
</clipPath>
</defs>
</svg>
